<?xml version="1.0" encoding="UTF-8"?>
<svg width="26px" height="26px" viewBox="0 0 26 26" version="1.1" xmlns="http://www.w3.org/2000/svg" xmlns:xlink="http://www.w3.org/1999/xlink">
    <!-- Generator: Sketch 50.2 (55047) - http://www.bohemiancoding.com/sketch -->
    <title>magnifier</title>
    <desc>Created with Sketch.</desc>
    <defs></defs>
    <g id="Page-1" stroke="none" stroke-width="1" fill="none" fill-rule="evenodd">
        <g id="iPhone-8" transform="translate(-296.000000, -176.000000)" fill="#9B9B9B">
            <path d="M316.841535,193.60139 L322,198.754169 L318.750586,202 L313.586223,196.84133 C311.798185,198.013725 309.658997,198.695666 307.360357,198.695666 C301.086205,198.695666 296,193.615068 296,187.347833 C296,181.080597 301.086205,176 307.360357,176 C313.634509,176 318.720713,181.080597 318.720713,187.347833 C318.720713,189.658765 318.029175,191.808357 316.841535,193.60139 Z M307.360357,195.453428 C311.841894,195.453428 315.474897,191.824429 315.474897,187.347833 C315.474897,182.871236 311.841894,179.242238 307.360357,179.242238 C302.878819,179.242238 299.245816,182.871236 299.245816,187.347833 C299.245816,191.824429 302.878819,195.453428 307.360357,195.453428 Z" id="magnifier"></path>
        </g>
    </g>
</svg>