<?xml version="1.0" encoding="UTF-8"?>
<svg width="110px" height="26px" viewBox="0 0 110 26" version="1.1" xmlns="http://www.w3.org/2000/svg" xmlns:xlink="http://www.w3.org/1999/xlink">
    <!-- Generator: Sketch 50.2 (55047) - http://www.bohemiancoding.com/sketch -->
    <title>vegogo</title>
    <desc>Created with Sketch.</desc>
    <defs></defs>
    <g id="Symbols" stroke="none" stroke-width="1" fill="none" fill-rule="evenodd">
        <g id="vegogo" transform="translate(1.000000, -7.000000)" fill="#000000">
            <path d="M4.5,8.052 L8.46,17.484 L12.384,8.052 L17.316,8.052 L10.476,24 L6.408,24 L-0.432,8.052 L4.5,8.052 Z M28.7085,18.456 L32.7405,20.04 C30.8685,23.1 28.3845,24.576 25.1805,24.576 C20.3925,24.576 16.7925,20.904 16.7925,16.044 C16.7925,11.256 20.3925,7.476 24.9645,7.476 C29.6085,7.476 32.9925,11.22 32.9925,16.368 C32.9925,16.656 32.9925,16.944 32.9565,17.628 L21.5085,17.628 C22.1205,19.572 23.2725,20.508 25.1445,20.508 C26.6925,20.508 27.8445,19.824 28.7085,18.456 Z M21.5085,14.424 L28.4205,14.424 C27.7725,12.408 26.6925,11.508 24.9645,11.508 C23.2005,11.508 22.0485,12.48 21.5085,14.424 Z M46.617,24.324 L46.617,23.1 C45.069,24.216 44.025,24.576 42.477,24.576 C37.941,24.576 34.269,20.76 34.269,16.008 C34.269,11.292 37.905,7.476 42.477,7.476 C44.025,7.476 45.069,7.836 46.617,8.952 L46.617,8.052 L51.225,8.052 L51.225,24.324 C51.225,29.436 47.697,32.964 42.549,32.964 C40.065,32.964 37.869,32.136 36.105,30.516 C35.673,30.084 35.277,29.688 34.449,28.716 L37.545,25.764 C37.725,25.98 37.869,26.16 37.941,26.232 C38.049,26.376 38.157,26.484 38.265,26.592 C39.561,28.14 40.857,28.788 42.513,28.788 C45.141,28.788 46.617,27.168 46.617,24.324 Z M42.801,11.616 C40.533,11.616 38.913,13.416 38.913,15.972 C38.913,18.636 40.497,20.436 42.801,20.436 C45.105,20.436 46.653,18.636 46.653,16.008 C46.653,13.38 45.105,11.616 42.801,11.616 Z M62.1855,7.476 C66.8655,7.476 70.6455,11.292 70.6455,16.008 C70.6455,20.832 66.9015,24.576 62.0775,24.576 C57.2175,24.576 53.4735,20.832 53.4735,15.936 C53.4735,11.148 57.2535,7.476 62.1855,7.476 Z M62.0055,11.652 C59.7375,11.652 58.1175,13.452 58.1175,15.972 C58.1175,18.636 59.7015,20.4 62.0775,20.4 C64.4175,20.4 66.0015,18.636 66.0015,16.008 C66.0015,13.38 64.4175,11.652 62.0055,11.652 Z M84.27,24.324 L84.27,23.1 C82.722,24.216 81.678,24.576 80.13,24.576 C75.594,24.576 71.922,20.76 71.922,16.008 C71.922,11.292 75.558,7.476 80.13,7.476 C81.678,7.476 82.722,7.836 84.27,8.952 L84.27,8.052 L88.878,8.052 L88.878,24.324 C88.878,29.436 85.35,32.964 80.202,32.964 C77.718,32.964 75.522,32.136 73.758,30.516 C73.326,30.084 72.93,29.688 72.102,28.716 L75.198,25.764 C75.378,25.98 75.522,26.16 75.594,26.232 C75.702,26.376 75.81,26.484 75.918,26.592 C77.214,28.14 78.51,28.788 80.166,28.788 C82.794,28.788 84.27,27.168 84.27,24.324 Z M80.454,11.616 C78.186,11.616 76.566,13.416 76.566,15.972 C76.566,18.636 78.15,20.436 80.454,20.436 C82.758,20.436 84.306,18.636 84.306,16.008 C84.306,13.38 82.758,11.616 80.454,11.616 Z M99.8385,7.476 C104.5185,7.476 108.2985,11.292 108.2985,16.008 C108.2985,20.832 104.5545,24.576 99.7305,24.576 C94.8705,24.576 91.1265,20.832 91.1265,15.936 C91.1265,11.148 94.9065,7.476 99.8385,7.476 Z M99.6585,11.652 C97.3905,11.652 95.7705,13.452 95.7705,15.972 C95.7705,18.636 97.3545,20.4 99.7305,20.4 C102.0705,20.4 103.6545,18.636 103.6545,16.008 C103.6545,13.38 102.0705,11.652 99.6585,11.652 Z"></path>
        </g>
    </g>
</svg>