<?xml version="1.0" encoding="UTF-8"?>
<svg width="249px" height="79px" viewBox="0 0 249 79" version="1.1" xmlns="http://www.w3.org/2000/svg" xmlns:xlink="http://www.w3.org/1999/xlink">
    <!-- Generator: Sketch 51.3 (57544) - http://www.bohemiancoding.com/sketch -->
    <title>the new guide to veg</title>
    <desc>Created with Sketch.</desc>
    <defs></defs>
    <g id="Page-1" stroke="none" stroke-width="1" fill="none" fill-rule="evenodd">
        <g id="Mobile-Copy-3" transform="translate(-42.000000, -85.000000)" fill="#000000">
            <path d="M60.6147031,114.04 L60.6147031,92.008 L56.0247031,92.008 L56.0247031,88.2 L58.0647031,86.16 L71.3247031,86.16 L71.3247031,89.968 L69.2847031,92.008 L66.7347031,92.008 L66.7347031,112 L64.6947031,114.04 L60.6147031,114.04 Z M63.3347031,111.32 L66.0547031,111.32 L66.0547031,89.288 L70.6447031,89.288 L70.6447031,86.84 L58.7447031,86.84 L58.7447031,89.288 L63.3347031,89.288 L63.3347031,111.32 Z M75.889518,114.04 L75.889518,88.2 L77.929518,86.16 L82.009518,86.16 L82.009518,97.176 L83.029518,97.176 L83.029518,88.2 L85.069518,86.16 L89.149518,86.16 L89.149518,112 L87.109518,114.04 L83.029518,114.04 L83.029518,103.024 L82.009518,103.024 L82.009518,112 L79.969518,114.04 L75.889518,114.04 Z M78.609518,111.32 L81.329518,111.32 L81.329518,100.304 L85.749518,100.304 L85.749518,111.32 L88.469518,111.32 L88.469518,86.84 L85.749518,86.84 L85.749518,97.856 L81.329518,97.856 L81.329518,86.84 L78.609518,86.84 L78.609518,111.32 Z M95.5843329,114.04 L95.5843329,88.2 L97.6243329,86.16 L108.164333,86.16 L108.164333,89.968 L106.124333,92.008 L101.704333,92.008 L101.704333,97.176 L106.804333,97.176 L106.804333,100.984 L104.764333,103.024 L101.704333,103.024 L101.704333,108.192 L108.164333,108.192 L108.164333,112 L106.124333,114.04 L95.5843329,114.04 Z M98.3043329,111.32 L107.484333,111.32 L107.484333,108.872 L101.024333,108.872 L101.024333,100.304 L106.124333,100.304 L106.124333,97.856 L101.024333,97.856 L101.024333,89.288 L107.484333,89.288 L107.484333,86.84 L98.3043329,86.84 L98.3043329,111.32 Z M123.243963,114.04 L123.243963,88.2 L125.283963,86.16 L128.649963,86.16 L131.063963,93.028 L131.063963,88.2 L133.103963,86.16 L137.183963,86.16 L137.183963,112 L135.143963,114.04 L131.743963,114.04 L129.363963,107.274 L129.363963,112 L127.323963,114.04 L123.243963,114.04 Z M125.963963,111.32 L128.683963,111.32 L128.683963,95.646 L134.259963,111.32 L136.503963,111.32 L136.503963,86.84 L133.783963,86.84 L133.783963,102.582 L128.173963,86.84 L125.963963,86.84 L125.963963,111.32 Z M143.618778,114.04 L143.618778,88.2 L145.658778,86.16 L156.198778,86.16 L156.198778,89.968 L154.158778,92.008 L149.738778,92.008 L149.738778,97.176 L154.838778,97.176 L154.838778,100.984 L152.798778,103.024 L149.738778,103.024 L149.738778,108.192 L156.198778,108.192 L156.198778,112 L154.158778,114.04 L143.618778,114.04 Z M146.338778,111.32 L155.518778,111.32 L155.518778,108.872 L149.058778,108.872 L149.058778,100.304 L154.158778,100.304 L154.158778,97.856 L149.058778,97.856 L149.058778,89.288 L155.518778,89.288 L155.518778,86.84 L146.338778,86.84 L146.338778,111.32 Z M178.987593,112 L176.947593,114.04 L171.507593,114.04 L170.521593,106.22 L169.807593,112 L167.767593,114.04 L162.327593,114.04 L159.403593,88.2 L161.443593,86.16 L165.557593,86.16 L166.475593,96.224 L167.597593,88.2 L169.637593,86.16 L173.717593,86.16 L175.111593,95.884 L175.791593,88.2 L177.831593,86.16 L181.911593,86.16 L178.987593,112 Z M169.195593,111.32 L171.677593,92.314 L174.159593,111.32 L178.409593,111.32 L181.129593,86.84 L178.409593,86.84 L176.267593,108.6 L173.105593,86.84 L170.249593,86.84 L167.087593,108.6 L164.945593,86.84 L162.225593,86.84 L164.979593,111.32 L169.195593,111.32 Z M201.411222,114.55 C199.733881,114.55 198.379561,114.034338 197.348222,113.003 C196.316884,111.971662 195.801222,110.617342 195.801222,108.94 L195.801222,93.3 C195.801222,91.5999915 196.311217,90.2400051 197.331222,89.22 L199.371222,87.18 C200.391227,86.1599949 201.751214,85.65 203.451222,85.65 C205.128564,85.65 206.482884,86.1656615 207.514222,87.197 C208.545561,88.2283385 209.061222,89.5826583 209.061222,91.26 L209.061222,94.32 L207.021222,96.36 L202.941222,96.36 L202.941222,93.028 C202.941222,92.2799963 202.601226,91.7926678 201.921222,91.566 L201.921222,100.1 L203.281222,98.74 L209.061222,98.74 L209.061222,106.9 C209.061222,108.600009 208.551227,109.959995 207.531222,110.98 L205.491222,113.02 C204.471217,114.040005 203.111231,114.55 201.411222,114.55 Z M199.881222,110.47 C200.787894,111.376671 201.977882,111.83 203.451222,111.83 C204.924563,111.83 206.114551,111.376671 207.021222,110.47 C207.927894,109.563329 208.381222,108.373341 208.381222,106.9 L208.381222,99.42 L203.961222,99.42 L203.961222,101.868 L205.661222,101.868 L205.661222,107.172 C205.661222,107.829337 205.457224,108.361998 205.049222,108.77 C204.64122,109.178002 204.108559,109.382 203.451222,109.382 C202.793886,109.382 202.261224,109.178002 201.853222,108.77 C201.44522,108.361998 201.241222,107.829337 201.241222,107.172 L201.241222,90.988 C201.241222,90.3306634 201.44522,89.798002 201.853222,89.39 C202.261224,88.981998 202.793886,88.778 203.451222,88.778 C204.108559,88.778 204.64122,88.981998 205.049222,89.39 C205.457224,89.798002 205.661222,90.3306634 205.661222,90.988 L205.661222,93.64 L208.381222,93.64 L208.381222,91.26 C208.381222,89.7866593 207.927894,88.5966712 207.021222,87.69 C206.114551,86.7833288 204.924563,86.33 203.451222,86.33 C201.977882,86.33 200.787894,86.7833288 199.881222,87.69 C198.974551,88.5966712 198.521222,89.7866593 198.521222,91.26 L198.521222,106.9 C198.521222,108.373341 198.974551,109.563329 199.881222,110.47 Z M202.941222,108.634 L202.941222,104.588 L201.921222,104.588 L201.921222,107.172 C201.921222,107.920004 202.261219,108.407332 202.941222,108.634 Z M220.256037,114.55 C218.578696,114.55 217.224376,114.034338 216.193037,113.003 C215.161699,111.971662 214.646037,110.617342 214.646037,108.94 L214.646037,88.2 L216.686037,86.16 L220.766037,86.16 L220.766037,107.172 C220.766037,107.920004 221.106034,108.407332 221.786037,108.634 L221.786037,88.2 L223.826037,86.16 L227.906037,86.16 L227.906037,106.9 C227.906037,108.600009 227.396042,109.959995 226.376037,110.98 L224.336037,113.02 C223.316032,114.040005 221.956046,114.55 220.256037,114.55 Z M218.726037,110.47 C219.632708,111.376671 220.822697,111.83 222.296037,111.83 C223.769378,111.83 224.959366,111.376671 225.866037,110.47 C226.772708,109.563329 227.226037,108.373341 227.226037,106.9 L227.226037,86.84 L224.506037,86.84 L224.506037,107.172 C224.506037,107.829337 224.302039,108.361998 223.894037,108.77 C223.486035,109.178002 222.953374,109.382 222.296037,109.382 C221.638701,109.382 221.106039,109.178002 220.698037,108.77 C220.290035,108.361998 220.086037,107.829337 220.086037,107.172 L220.086037,86.84 L217.366037,86.84 L217.366037,106.9 C217.366037,108.373341 217.819366,109.563329 218.726037,110.47 Z M234.170852,114.04 L234.170852,88.2 L236.210852,86.16 L240.290852,86.16 L240.290852,112 L238.250852,114.04 L234.170852,114.04 Z M236.890852,111.32 L239.610852,111.32 L239.610852,86.84 L236.890852,86.84 L236.890852,111.32 Z M246.725667,114.04 L246.725667,88.2 L248.765667,86.16 L254.375667,86.16 C256.053009,86.16 257.407329,86.6756615 258.438667,87.707 C259.470006,88.7383385 259.985667,90.0926583 259.985667,91.77 L259.985667,106.39 C259.985667,108.090008 259.475672,109.449995 258.455667,110.47 L256.415667,112.51 C255.395662,113.530005 254.035676,114.04 252.335667,114.04 L246.725667,114.04 Z M249.445667,111.32 L254.375667,111.32 C255.849008,111.32 257.038996,110.866671 257.945667,109.96 C258.852338,109.053329 259.305667,107.863341 259.305667,106.39 L259.305667,91.77 C259.305667,90.2966593 258.852338,89.1066712 257.945667,88.2 C257.038996,87.2933288 255.849008,86.84 254.375667,86.84 L249.445667,86.84 L249.445667,111.32 Z M252.165667,108.872 L252.165667,89.288 L254.375667,89.288 C255.033004,89.288 255.565665,89.491998 255.973667,89.9 C256.381669,90.308002 256.585667,90.8406634 256.585667,91.498 L256.585667,106.662 C256.585667,107.319337 256.381669,107.851998 255.973667,108.26 C255.565665,108.668002 255.033004,108.872 254.375667,108.872 L252.165667,108.872 Z M252.845667,108.192 L253.865667,108.192 L253.865667,93.538 C253.865667,92.7899963 253.52567,92.3026678 252.845667,92.076 L252.845667,108.192 Z M266.080482,114.04 L266.080482,88.2 L268.120482,86.16 L278.660482,86.16 L278.660482,89.968 L276.620482,92.008 L272.200482,92.008 L272.200482,97.176 L277.300482,97.176 L277.300482,100.984 L275.260482,103.024 L272.200482,103.024 L272.200482,108.192 L278.660482,108.192 L278.660482,112 L276.620482,114.04 L266.080482,114.04 Z M268.800482,111.32 L277.980482,111.32 L277.980482,108.872 L271.520482,108.872 L271.520482,100.304 L276.620482,100.304 L276.620482,97.856 L271.520482,97.856 L271.520482,89.288 L277.980482,89.288 L277.980482,86.84 L268.800482,86.84 L268.800482,111.32 Z M47.4818882,163.04 L47.4818882,141.008 L42.8918882,141.008 L42.8918882,137.2 L44.9318882,135.16 L58.1918882,135.16 L58.1918882,138.968 L56.1518882,141.008 L53.6018882,141.008 L53.6018882,161 L51.5618882,163.04 L47.4818882,163.04 Z M50.2018882,160.32 L52.9218882,160.32 L52.9218882,138.288 L57.5118882,138.288 L57.5118882,135.84 L45.6118882,135.84 L45.6118882,138.288 L50.2018882,138.288 L50.2018882,160.32 Z M67.6867031,163.55 C66.0093614,163.55 64.6550416,163.034338 63.6237031,162.003 C62.5923647,160.971662 62.0767031,159.617342 62.0767031,157.94 L62.0767031,142.3 C62.0767031,140.599991 62.586698,139.240005 63.6067031,138.22 L65.6467031,136.18 C66.6667082,135.159995 68.0266946,134.65 69.7267031,134.65 C71.4040449,134.65 72.7583647,135.165662 73.7897031,136.197 C74.8210416,137.228338 75.3367031,138.582658 75.3367031,140.26 L75.3367031,155.9 C75.3367031,157.600009 74.8267082,158.959995 73.8067031,159.98 L71.7667031,162.02 C70.746698,163.040005 69.3867116,163.55 67.6867031,163.55 Z M66.1567031,159.47 C67.0633743,160.376671 68.2533624,160.83 69.7267031,160.83 C71.2000438,160.83 72.3900319,160.376671 73.2967031,159.47 C74.2033743,158.563329 74.6567031,157.373341 74.6567031,155.9 L74.6567031,140.26 C74.6567031,138.786659 74.2033743,137.596671 73.2967031,136.69 C72.3900319,135.783329 71.2000438,135.33 69.7267031,135.33 C68.2533624,135.33 67.0633743,135.783329 66.1567031,136.69 C65.2500319,137.596671 64.7967031,138.786659 64.7967031,140.26 L64.7967031,155.9 C64.7967031,157.373341 65.2500319,158.563329 66.1567031,159.47 Z M71.3247031,157.77 C70.9167011,158.178002 70.3840398,158.382 69.7267031,158.382 C69.0693665,158.382 68.5367052,158.178002 68.1287031,157.77 C67.7207011,157.361998 67.5167031,156.829337 67.5167031,156.172 L67.5167031,139.988 C67.5167031,139.330663 67.7207011,138.798002 68.1287031,138.39 C68.5367052,137.981998 69.0693665,137.778 69.7267031,137.778 C70.3840398,137.778 70.9167011,137.981998 71.3247031,138.39 C71.7327052,138.798002 71.9367031,139.330663 71.9367031,139.988 L71.9367031,156.172 C71.9367031,156.829337 71.7327052,157.361998 71.3247031,157.77 Z M69.2167031,157.634 L69.2167031,142.028 C69.2167031,141.279996 68.8767065,140.792668 68.1967031,140.566 L68.1967031,156.172 C68.1967031,156.920004 68.5366997,157.407332 69.2167031,157.634 Z M92.8303329,163.04 L89.2263329,137.2 L91.2663329,135.16 L95.3803329,135.16 L96.8763329,147.298 L98.1003329,137.2 L100.140333,135.16 L104.254333,135.16 L100.650333,161 L98.6103329,163.04 L92.8303329,163.04 Z M95.4823329,160.32 L100.038333,160.32 L103.472333,135.84 L100.752333,135.84 L97.9303329,157.6 L97.5903329,157.6 L94.7683329,135.84 L92.0483329,135.84 L95.4823329,160.32 Z M108.649148,163.04 L108.649148,137.2 L110.689148,135.16 L121.229148,135.16 L121.229148,138.968 L119.189148,141.008 L114.769148,141.008 L114.769148,146.176 L119.869148,146.176 L119.869148,149.984 L117.829148,152.024 L114.769148,152.024 L114.769148,157.192 L121.229148,157.192 L121.229148,161 L119.189148,163.04 L108.649148,163.04 Z M111.369148,160.32 L120.549148,160.32 L120.549148,157.872 L114.089148,157.872 L114.089148,149.304 L119.189148,149.304 L119.189148,146.856 L114.089148,146.856 L114.089148,138.288 L120.549148,138.288 L120.549148,135.84 L111.369148,135.84 L111.369148,160.32 Z M131.743963,163.55 C130.066621,163.55 128.712301,163.034338 127.680963,162.003 C126.649624,160.971662 126.133963,159.617342 126.133963,157.94 L126.133963,142.3 C126.133963,140.599991 126.643958,139.240005 127.663963,138.22 L129.703963,136.18 C130.723968,135.159995 132.083954,134.65 133.783963,134.65 C135.461304,134.65 136.815624,135.165662 137.846963,136.197 C138.878301,137.228338 139.393963,138.582658 139.393963,140.26 L139.393963,143.32 L137.353963,145.36 L133.273963,145.36 L133.273963,142.028 C133.273963,141.279996 132.933966,140.792668 132.253963,140.566 L132.253963,149.1 L133.613963,147.74 L139.393963,147.74 L139.393963,155.9 C139.393963,157.600009 138.883968,158.959995 137.863963,159.98 L135.823963,162.02 C134.803958,163.040005 133.443971,163.55 131.743963,163.55 Z M130.213963,159.47 C131.120634,160.376671 132.310622,160.83 133.783963,160.83 C135.257303,160.83 136.447292,160.376671 137.353963,159.47 C138.260634,158.563329 138.713963,157.373341 138.713963,155.9 L138.713963,148.42 L134.293963,148.42 L134.293963,150.868 L135.993963,150.868 L135.993963,156.172 C135.993963,156.829337 135.789965,157.361998 135.381963,157.77 C134.973961,158.178002 134.441299,158.382 133.783963,158.382 C133.126626,158.382 132.593965,158.178002 132.185963,157.77 C131.777961,157.361998 131.573963,156.829337 131.573963,156.172 L131.573963,139.988 C131.573963,139.330663 131.777961,138.798002 132.185963,138.39 C132.593965,137.981998 133.126626,137.778 133.783963,137.778 C134.441299,137.778 134.973961,137.981998 135.381963,138.39 C135.789965,138.798002 135.993963,139.330663 135.993963,139.988 L135.993963,142.64 L138.713963,142.64 L138.713963,140.26 C138.713963,138.786659 138.260634,137.596671 137.353963,136.69 C136.447292,135.783329 135.257303,135.33 133.783963,135.33 C132.310622,135.33 131.120634,135.783329 130.213963,136.69 C129.307292,137.596671 128.853963,138.786659 128.853963,140.26 L128.853963,155.9 C128.853963,157.373341 129.307292,158.563329 130.213963,159.47 Z M133.273963,157.634 L133.273963,153.588 L132.253963,153.588 L132.253963,156.172 C132.253963,156.920004 132.593959,157.407332 133.273963,157.634 Z M142.768778,163.04 L146.372778,137.2 L148.412778,135.16 L154.192778,135.16 L157.796778,161 L155.756778,163.04 L151.642778,163.04 L150.962778,157.226 L149.364778,157.226 L148.922778,161 L146.882778,163.04 L142.768778,163.04 Z M145.590778,160.32 L148.310778,160.32 L149.058778,154.506 L153.546778,154.506 L154.294778,160.32 L157.014778,160.32 L153.580778,135.84 L149.024778,135.84 L145.590778,160.32 Z M149.364778,152.058 L151.132778,138.288 L151.472778,138.288 L153.240778,152.058 L149.364778,152.058 Z M150.078778,151.378 L150.180778,151.378 L150.146778,150.8 L150.078778,151.378 Z M162.191593,163.04 L162.191593,137.2 L164.231593,135.16 L167.597593,135.16 L170.011593,142.028 L170.011593,137.2 L172.051593,135.16 L176.131593,135.16 L176.131593,161 L174.091593,163.04 L170.691593,163.04 L168.311593,156.274 L168.311593,161 L166.271593,163.04 L162.191593,163.04 Z M164.911593,160.32 L167.631593,160.32 L167.631593,144.646 L173.207593,160.32 L175.451593,160.32 L175.451593,135.84 L172.731593,135.84 L172.731593,151.582 L167.121593,135.84 L164.911593,135.84 L164.911593,160.32 Z M192.401222,163.04 L192.401222,137.2 L194.441222,135.16 L204.981222,135.16 L204.981222,138.968 L202.941222,141.008 L198.521222,141.008 L198.521222,146.176 L203.621222,146.176 L203.621222,149.984 L201.581222,152.024 L198.521222,152.024 L198.521222,157.192 L204.981222,157.192 L204.981222,161 L202.941222,163.04 L192.401222,163.04 Z M195.121222,160.32 L204.301222,160.32 L204.301222,157.872 L197.841222,157.872 L197.841222,149.304 L202.941222,149.304 L202.941222,146.856 L197.841222,146.856 L197.841222,138.288 L204.301222,138.288 L204.301222,135.84 L195.121222,135.84 L195.121222,160.32 Z M208.186037,163.04 L211.790037,137.2 L213.830037,135.16 L219.610037,135.16 L223.214037,161 L221.174037,163.04 L217.060037,163.04 L216.380037,157.226 L214.782037,157.226 L214.340037,161 L212.300037,163.04 L208.186037,163.04 Z M211.008037,160.32 L213.728037,160.32 L214.476037,154.506 L218.964037,154.506 L219.712037,160.32 L222.432037,160.32 L218.998037,135.84 L214.442037,135.84 L211.008037,160.32 Z M214.782037,152.058 L216.550037,138.288 L216.890037,138.288 L218.658037,152.058 L214.782037,152.058 Z M215.496037,151.378 L215.598037,151.378 L215.564037,150.8 L215.496037,151.378 Z M229.818852,163.04 L229.818852,141.008 L225.228852,141.008 L225.228852,137.2 L227.268852,135.16 L240.528852,135.16 L240.528852,138.968 L238.488852,141.008 L235.938852,141.008 L235.938852,161 L233.898852,163.04 L229.818852,163.04 Z M232.538852,160.32 L235.258852,160.32 L235.258852,138.288 L239.848852,138.288 L239.848852,135.84 L227.948852,135.84 L227.948852,138.288 L232.538852,138.288 L232.538852,160.32 Z M245.093667,163.04 L245.093667,137.2 L247.133667,135.16 L251.213667,135.16 L251.213667,161 L249.173667,163.04 L245.093667,163.04 Z M247.813667,160.32 L250.533667,160.32 L250.533667,135.84 L247.813667,135.84 L247.813667,160.32 Z M257.648482,163.04 L257.648482,137.2 L259.688482,135.16 L263.054482,135.16 L265.468482,142.028 L265.468482,137.2 L267.508482,135.16 L271.588482,135.16 L271.588482,161 L269.548482,163.04 L266.148482,163.04 L263.768482,156.274 L263.768482,161 L261.728482,163.04 L257.648482,163.04 Z M260.368482,160.32 L263.088482,160.32 L263.088482,144.646 L268.664482,160.32 L270.908482,160.32 L270.908482,135.84 L268.188482,135.84 L268.188482,151.582 L262.578482,135.84 L260.368482,135.84 L260.368482,160.32 Z M283.293297,163.55 C281.615955,163.55 280.261635,163.034338 279.230297,162.003 C278.198958,160.971662 277.683297,159.617342 277.683297,157.94 L277.683297,142.3 C277.683297,140.599991 278.193292,139.240005 279.213297,138.22 L281.253297,136.18 C282.273302,135.159995 283.633288,134.65 285.333297,134.65 C287.010639,134.65 288.364958,135.165662 289.396297,136.197 C290.427635,137.228338 290.943297,138.582658 290.943297,140.26 L290.943297,143.32 L288.903297,145.36 L284.823297,145.36 L284.823297,142.028 C284.823297,141.279996 284.4833,140.792668 283.803297,140.566 L283.803297,149.1 L285.163297,147.74 L290.943297,147.74 L290.943297,155.9 C290.943297,157.600009 290.433302,158.959995 289.413297,159.98 L287.373297,162.02 C286.353292,163.040005 284.993305,163.55 283.293297,163.55 Z M281.763297,159.47 C282.669968,160.376671 283.859956,160.83 285.333297,160.83 C286.806638,160.83 287.996626,160.376671 288.903297,159.47 C289.809968,158.563329 290.263297,157.373341 290.263297,155.9 L290.263297,148.42 L285.843297,148.42 L285.843297,150.868 L287.543297,150.868 L287.543297,156.172 C287.543297,156.829337 287.339299,157.361998 286.931297,157.77 C286.523295,158.178002 285.990633,158.382 285.333297,158.382 C284.67596,158.382 284.143299,158.178002 283.735297,157.77 C283.327295,157.361998 283.123297,156.829337 283.123297,156.172 L283.123297,139.988 C283.123297,139.330663 283.327295,138.798002 283.735297,138.39 C284.143299,137.981998 284.67596,137.778 285.333297,137.778 C285.990633,137.778 286.523295,137.981998 286.931297,138.39 C287.339299,138.798002 287.543297,139.330663 287.543297,139.988 L287.543297,142.64 L290.263297,142.64 L290.263297,140.26 C290.263297,138.786659 289.809968,137.596671 288.903297,136.69 C287.996626,135.783329 286.806638,135.33 285.333297,135.33 C283.859956,135.33 282.669968,135.783329 281.763297,136.69 C280.856626,137.596671 280.403297,138.786659 280.403297,140.26 L280.403297,155.9 C280.403297,157.373341 280.856626,158.563329 281.763297,159.47 Z M284.823297,157.634 L284.823297,153.588 L283.803297,153.588 L283.803297,156.172 C283.803297,156.920004 284.143293,157.407332 284.823297,157.634 Z" id="the-new-guide-to-veg"></path>
        </g>
    </g>
</svg>