<?xml version="1.0" standalone="no"?>
<!DOCTYPE svg PUBLIC "-//W3C//DTD SVG 20010904//EN"
 "http://www.w3.org/TR/2001/REC-SVG-20010904/DTD/svg10.dtd">
<svg version="1.0" xmlns="http://www.w3.org/2000/svg"
 width="260.000000pt" height="260.000000pt" viewBox="0 0 260.000000 260.000000"
 preserveAspectRatio="xMidYMid meet">
<metadata>
Created by potrace 1.11, written by Peter Selinger 2001-2013
</metadata>
<g transform="translate(0.000000,260.000000) scale(0.100000,-0.100000)"
fill="#000000" stroke="none">
<path d="M1158 2590 c-424 -68 -751 -371 -855 -795 -12 -51 -17 -111 -16 -220
0 -129 4 -164 27 -250 62 -238 217 -458 416 -592 65 -44 164 -92 250 -122 l75
-26 140 -282 c77 -155 143 -285 147 -289 4 -3 77 133 162 302 l156 309 97 47
c376 180 607 610 553 1028 -30 231 -130 437 -292 598 -131 132 -303 229 -483
273 -92 23 -291 33 -377 19z m116 -1015 c44 -107 81 -193 83 -192 1 2 38 88
81 193 l78 189 88 3 c54 2 87 -1 84 -7 -1 -5 -61 -147 -133 -315 l-130 -306
-67 0 c-55 0 -69 3 -77 18 -9 18 -234 543 -252 590 -8 22 -8 22 79 22 l87 0
79 -195z"/>
</g>
</svg>
