<?xml version="1.0" standalone="no"?>
<!DOCTYPE svg PUBLIC "-//W3C//DTD SVG 20010904//EN"
 "http://www.w3.org/TR/2001/REC-SVG-20010904/DTD/svg10.dtd">
<svg version="1.0" xmlns="http://www.w3.org/2000/svg"
 width="1789.000000pt" height="1789.000000pt" viewBox="0 0 1789.000000 1789.000000"
 preserveAspectRatio="xMidYMid meet">
<metadata>
Created by potrace 1.11, written by Peter Selinger 2001-2013
</metadata>
<g transform="translate(0.000000,1789.000000) scale(0.100000,-0.100000)"
fill="#000000" stroke="none">
<path d="M8930 17876 c0 -14 -16 -16 -117 -17 -199 -2 -494 -19 -593 -34 -14
-2 -50 -7 -80 -10 -49 -5 -163 -20 -230 -30 -51 -8 -325 -56 -335 -59 -5 -1
-28 -6 -50 -10 -22 -5 -76 -17 -120 -28 -44 -11 -91 -22 -105 -25 -107 -19
-482 -135 -735 -226 -178 -65 -448 -183 -670 -294 -348 -175 -685 -383 -1010
-626 -110 -82 -311 -244 -360 -288 -11 -10 -47 -42 -80 -71 -419 -369 -837
-851 -1150 -1328 -48 -74 -96 -147 -107 -162 -10 -15 -18 -31 -18 -37 0 -5 -4
-11 -8 -13 -9 -3 -15 -14 -139 -235 -222 -397 -403 -820 -545 -1273 -16 -52
-31 -104 -33 -114 -3 -10 -9 -33 -15 -51 -6 -18 -12 -41 -15 -51 -2 -10 -19
-80 -38 -154 -19 -74 -38 -153 -42 -175 -5 -22 -9 -42 -10 -45 -1 -3 -5 -23
-10 -45 -4 -22 -10 -49 -12 -60 -11 -54 -62 -368 -68 -425 -8 -67 -10 -81 -19
-160 -23 -183 -38 -463 -37 -710 0 -165 9 -449 16 -505 2 -16 6 -70 10 -120 4
-49 9 -98 10 -107 2 -9 7 -48 10 -85 4 -37 9 -75 10 -85 2 -9 6 -38 10 -65 11
-76 13 -94 25 -163 6 -36 13 -78 16 -95 3 -16 14 -75 25 -130 17 -84 32 -150
84 -365 29 -122 173 -576 204 -645 5 -11 28 -69 52 -130 127 -329 341 -757
521 -1043 32 -51 58 -97 58 -103 0 -5 4 -9 8 -9 5 0 15 -12 23 -27 8 -16 16
-30 19 -33 3 -3 39 -54 79 -115 114 -167 343 -471 381 -505 3 -3 18 -21 34
-40 162 -199 450 -492 696 -710 467 -413 1084 -816 1620 -1058 269 -121 637
-265 760 -297 8 -3 67 -21 130 -40 226 -71 679 -175 865 -199 24 -4 102 -16
130 -21 11 -2 27 -4 36 -4 15 -1 39 -86 65 -226 3 -16 14 -66 24 -110 10 -44
28 -125 40 -180 12 -55 23 -107 25 -115 18 -76 27 -119 31 -140 3 -14 14 -65
25 -115 12 -49 22 -99 25 -110 2 -11 27 -123 55 -250 28 -126 52 -237 54 -245
4 -22 64 -291 70 -315 5 -23 75 -340 81 -370 7 -37 12 -59 34 -155 12 -52 23
-106 26 -120 3 -14 16 -74 30 -135 13 -60 26 -119 28 -130 2 -11 41 -186 86
-390 45 -203 91 -413 102 -465 11 -52 22 -103 24 -113 2 -9 6 -25 8 -35 2 -9
28 -123 56 -252 28 -129 54 -244 56 -255 3 -11 7 -31 10 -45 3 -14 9 -44 15
-68 5 -24 7 -47 4 -52 -3 -5 -1 -11 4 -14 12 -8 16 5 37 119 9 50 18 99 20
110 3 11 9 43 14 70 17 98 21 121 30 160 5 22 12 56 15 75 7 41 51 277 70 370
2 14 7 38 9 53 3 15 16 87 30 160 14 73 27 143 30 157 5 31 72 383 80 425 4
17 8 39 10 50 2 11 7 36 10 55 4 19 8 42 10 50 2 8 6 31 9 50 4 19 9 49 12 65
18 98 37 198 50 265 3 14 8 39 10 55 3 17 15 77 26 135 41 217 88 466 94 500
3 19 8 42 10 50 2 8 7 31 10 50 3 19 8 49 12 65 3 17 7 39 9 50 1 11 9 54 18
95 15 75 33 169 43 225 2 17 24 131 48 255 24 124 46 239 48 255 8 49 57 306
68 358 8 32 16 47 27 48 21 1 47 5 192 29 63 11 133 22 155 25 22 4 48 8 57
11 10 3 30 7 45 10 34 6 215 48 298 69 33 8 67 17 76 19 90 23 267 76 419 126
443 149 902 359 1294 594 65 39 131 78 145 86 14 9 79 51 145 95 65 44 134 91
154 104 69 46 327 245 442 340 221 183 493 444 683 656 145 161 150 166 212
245 33 41 63 77 66 80 29 25 229 300 349 480 45 69 91 137 101 152 11 15 19
29 19 32 0 3 27 48 60 101 33 53 60 97 60 99 0 1 28 52 61 112 71 126 206 401
272 554 61 143 118 281 122 302 2 9 8 25 13 35 35 67 214 653 238 778 4 21 28
130 45 200 5 22 11 54 14 70 3 17 16 93 29 170 26 149 32 191 41 270 3 28 8
61 10 75 2 14 7 59 10 100 4 41 8 82 10 90 12 65 20 312 19 615 0 377 -5 487
-29 695 -2 19 -7 64 -11 100 -3 36 -8 73 -10 84 -2 10 -6 44 -9 75 -4 31 -8
63 -10 71 -2 8 -7 35 -10 60 -11 78 -74 390 -106 520 -71 293 -177 626 -289
905 -29 74 -39 97 -75 180 -8 17 -21 48 -31 70 -67 158 -268 545 -368 708
-175 287 -317 492 -510 737 -318 403 -731 815 -1111 1110 -38 30 -72 57 -75
60 -11 13 -303 221 -395 282 -482 318 -1034 587 -1570 766 -189 63 -426 134
-491 146 -10 2 -66 15 -124 29 -152 37 -271 60 -475 93 -16 3 -37 6 -45 9 -8
2 -40 6 -71 10 -31 3 -65 7 -75 9 -11 2 -48 7 -84 11 -36 4 -79 9 -96 11 -17
2 -65 6 -105 10 -41 3 -92 7 -114 9 -22 2 -140 6 -262 10 -202 7 -223 6 -223
-9z"/>
</g>
</svg>
